<svg width="59" height="64" xmlns="http://www.w3.org/2000/svg" xmlns:xlink="http://www.w3.org/1999/xlink" overflow="hidden"><defs><clipPath id="clip0"><rect x="120" y="15" width="59" height="64"/></clipPath></defs><g clip-path="url(#clip0)" transform="translate(-120 -15)"><path d="M57.8776 17.0538 41.8699 1.04613C40.4786-0.350505 38.2186-0.354841 36.8218 1.03645 36.8185 1.03967 36.8155 1.04289 36.8122 1.04613L23.3883 14.4701 1.04613 36.8149C-0.350505 38.2062-0.354841 40.4662 1.03645 41.863 1.03967 41.8663 1.04289 41.8693 1.04613 41.8726L17.0538 57.883C18.4451 59.2798 20.7052 59.2839 22.1018 57.8927 22.105 57.8896 22.1083 57.8863 22.1115 57.883L42.1389 37.8528 57.8776 22.1142C59.2743 20.7229 59.2784 18.4629 57.8872 17.0663 57.8841 17.063 57.8809 17.0598 57.8776 17.0566" fill="#FFFFFF" transform="matrix(1 0 0 1.01843 120.038 15)"/><path d="M42.6689 22.8199C40.8509 24.6199 37.9182 24.6054 36.1181 22.7876 34.3182 20.9697 34.3328 18.0369 36.1505 16.2369 37.9684 14.4369 40.9012 14.4514 42.7013 16.2692 43.5632 17.1398 44.0453 18.3164 44.0417 19.5415 44.0382 20.7733 43.5442 21.9531 42.6689 22.8199M56.7463 18.1933 40.7386 2.1966C39.9665 1.42498 38.7153 1.42498 37.9435 2.1966L20.6453 19.4948 39.4454 38.2949 56.7436 20.9967C57.5151 20.2247 57.5151 18.9735 56.7436 18.2015" fill="#E31837" transform="matrix(1 0 0 1.01843 120.038 15)"/><path d="M23.089 36.1862C24.8986 34.38 27.8298 34.383 29.6359 36.1928 31.4418 38.0022 31.4391 40.9336 29.6293 42.7394 27.8196 44.5456 24.8886 44.5426 23.0825 42.7331 22.2167 41.8655 21.7303 40.6903 21.7298 39.4646 21.7282 38.2345 22.2174 37.0544 23.089 36.1862M16.0406 42.559C14.2296 44.3787 11.2863 44.3858 9.46661 42.5747 7.64693 40.7636 7.63987 37.8204 9.45091 36.0008 11.2619 34.181 14.2052 34.1741 16.0249 35.9849 16.8976 36.8537 17.3901 38.033 17.3943 39.2642 17.3988 40.4986 16.9117 41.6842 16.0406 42.559M2.17738 37.9462C1.40576 38.7183 1.40576 39.9693 2.17738 40.7414L18.1851 56.7518C18.957 57.5234 20.2083 57.5234 20.9802 56.7518L38.2784 39.4536 19.4756 20.648Z" fill="#006491" transform="matrix(1 0 0 1.01843 120.038 15)"/><text fill="#FFFFFF" font-family="Arial,Arial_MSFontService,sans-serif" font-weight="700" font-size="33" transform="matrix(0.274574 0 0 0.279635 147.257 77)">®</text></g></svg>